<svg xmlns="http://www.w3.org/2000/svg">
    <symbol id="link" viewBox="0 0 24 24">
        <path style="stroke:none;fill-rule:nonzero;fill:rgb(0%,0%,0%);fill-opacity:1;" d="M 14.496094 8.367188 C 15.90625 6.601562 15.90625 3.742188 14.496094 1.976562 C 13.246094 0.414062 11.273438 0.210938 9.835938 1.492188 L 9.796875 1.527344 C 9.4375 1.851562 9.355469 2.476562 9.613281 2.921875 C 9.871094 3.367188 10.371094 3.476562 10.726562 3.152344 L 10.765625 3.117188 C 11.570312 2.402344 12.667969 2.515625 13.363281 3.386719 C 14.148438 4.371094 14.148438 5.964844 13.363281 6.949219 L 10.558594 10.460938 C 9.769531 11.445312 8.496094 11.445312 7.707031 10.460938 C 7.011719 9.589844 6.921875 8.21875 7.492188 7.21875 L 7.519531 7.167969 C 7.777344 6.71875 7.691406 6.09375 7.335938 5.773438 C 6.976562 5.457031 6.476562 5.558594 6.21875 6.007812 L 6.191406 6.054688 C 5.164062 7.851562 5.324219 10.3125 6.574219 11.875 C 7.988281 13.640625 10.273438 13.640625 11.6875 11.875 Z M 1.503906 7.632812 C 0.09375 9.398438 0.09375 12.257812 1.503906 14.023438 C 2.753906 15.585938 4.726562 15.789062 6.164062 14.507812 L 6.203125 14.472656 C 6.5625 14.148438 6.644531 13.523438 6.386719 13.078125 C 6.128906 12.632812 5.628906 12.523438 5.273438 12.847656 L 5.234375 12.882812 C 4.429688 13.597656 3.332031 13.484375 2.636719 12.613281 C 1.851562 11.625 1.851562 10.03125 2.636719 9.046875 L 5.441406 5.539062 C 6.230469 4.554688 7.503906 4.554688 8.292969 5.539062 C 8.988281 6.410156 9.078125 7.78125 8.507812 8.785156 L 8.480469 8.835938 C 8.222656 9.285156 8.308594 9.910156 8.664062 10.226562 C 9.023438 10.546875 9.523438 10.445312 9.78125 9.996094 L 9.808594 9.945312 C 10.835938 8.148438 10.675781 5.6875 9.425781 4.125 C 8.011719 2.359375 5.726562 2.359375 4.3125 4.125 Z M 1.503906 7.632812 "/>
    </symbol>
</svg>
